<?xml version="1.0" encoding="UTF-8" standalone="no"?>
<!DOCTYPE svg PUBLIC "-//W3C//DTD SVG 1.1//EN"
 "http://www.w3.org/Graphics/SVG/1.1/DTD/svg11.dtd">
<!-- Generated by graphviz version 2.34.0 (20130907.0111)
 -->
<!-- Title: sea Pages: 1 -->
<svg width="612pt" height="368pt"
 viewBox="0.00 0.00 611.53 368.47" xmlns="http://www.w3.org/2000/svg" xmlns:xlink="http://www.w3.org/1999/xlink">
<g id="graph0" class="graph" transform="scale(1 1) rotate(0) translate(4 364.467)">
<title>sea</title>
<polygon fill="white" stroke="white" points="-4,4 -4,-364.467 607.53,-364.467 607.53,4 -4,4"/>
<!-- Кефалиния -->
<g id="isl2" class="node"><title>Кефалиния</title>
<ellipse fill="none" stroke="black" cx="53.9452" cy="-311.648" rx="53.8905" ry="18"/>
<text text-anchor="middle" x="53.9452" y="-307.948" font-family="Times New Roman,serif" font-size="14.00">Кефалиния</text>
</g>
<!-- Джианутри -->
<g id="isl7" class="node"><title>Джианутри</title>
<ellipse fill="none" stroke="black" cx="105.345" cy="-18" rx="55.4913" ry="18"/>
<text text-anchor="middle" x="105.345" y="-14.3" font-family="Times New Roman,serif" font-size="14.00">Джианутри</text>
</g>
<!-- Кефалиния&#45;&#45;Джианутри -->
<g id="edge1" class="edge"><title>Кефалиния&#45;&#45;Джианутри</title>
<path fill="none" stroke="black" d="M57.1605,-293.279C66.4133,-240.418 93.0284,-88.3667 102.197,-35.9871"/>
</g>
<!-- Тира -->
<g id="isl3" class="node"><title>Тира</title>
<ellipse fill="none" stroke="black" cx="253.735" cy="-212.766" rx="30.5947" ry="18"/>
<text text-anchor="middle" x="253.735" y="-209.066" font-family="Times New Roman,serif" font-size="14.00">Тира</text>
</g>
<!-- Джианутри&#45;&#45;Тира -->
<g id="edge10" class="edge"><title>Джианутри&#45;&#45;Тира</title>
<path fill="none" stroke="black" d="M118.776,-35.6277C147.241,-72.9899 213.302,-159.696 241.075,-196.149"/>
</g>
<!-- Тира&#45;&#45;Кефалиния -->
<g id="edge2" class="edge"><title>Тира&#45;&#45;Кефалиния</title>
<path fill="none" stroke="black" d="M230.032,-224.497C193.648,-242.505 124.063,-276.944 84.1262,-296.71"/>
</g>
<!-- Вис -->
<g id="isl4" class="node"><title>Вис</title>
<ellipse fill="none" stroke="black" cx="576.53" cy="-214.934" rx="27" ry="18"/>
<text text-anchor="middle" x="576.53" y="-211.234" font-family="Times New Roman,serif" font-size="14.00">Вис</text>
</g>
<!-- Вис&#45;&#45;Тира -->
<g id="edge3" class="edge"><title>Вис&#45;&#45;Тира</title>
<path fill="none" stroke="black" d="M549.287,-214.751C489.553,-214.35 347.388,-213.395 284.53,-212.973"/>
</g>
<!-- Иос -->
<g id="isl5" class="node"><title>Иос</title>
<ellipse fill="none" stroke="black" cx="377.367" cy="-342.467" rx="27" ry="18"/>
<text text-anchor="middle" x="377.367" y="-338.767" font-family="Times New Roman,serif" font-size="14.00">Иос</text>
</g>
<!-- Иос&#45;&#45;Кефалиния -->
<g id="edge6" class="edge"><title>Иос&#45;&#45;Кефалиния</title>
<path fill="none" stroke="black" d="M350.625,-339.918C297.05,-334.813 175.733,-323.253 105.96,-316.604"/>
</g>
<!-- Иос&#45;&#45;Тира -->
<g id="edge7" class="edge"><title>Иос&#45;&#45;Тира</title>
<path fill="none" stroke="black" d="M362.699,-327.079C339.033,-302.251 292.667,-253.609 268.769,-228.538"/>
</g>
<!-- Иос&#45;&#45;Вис -->
<g id="edge4" class="edge"><title>Иос&#45;&#45;Вис</title>
<path fill="none" stroke="black" d="M397.192,-329.772C435.367,-305.327 518.673,-251.982 556.786,-227.577"/>
</g>
<!-- ﻿Кастелоризо -->
<g id="isl6" class="node"><title>﻿Кастелоризо</title>
<ellipse fill="none" stroke="black" cx="422.993" cy="-18.047" rx="68.4888" ry="18"/>
<text text-anchor="middle" x="422.993" y="-14.347" font-family="Times New Roman,serif" font-size="14.00">﻿Кастелоризо</text>
</g>
<!-- Иос&#45;&#45;﻿Кастелоризо -->
<g id="edge5" class="edge"><title>Иос&#45;&#45;﻿Кастелоризо</title>
<path fill="none" stroke="black" d="M379.951,-324.095C387.982,-266.993 412.446,-93.0428 420.438,-36.2172"/>
</g>
<!-- ﻿Кастелоризо&#45;&#45;Джианутри -->
<g id="edge8" class="edge"><title>﻿Кастелоризо&#45;&#45;Джианутри</title>
<path fill="none" stroke="black" d="M354.46,-18.0369C296.553,-18.0283 214.669,-18.0162 160.812,-18.0082"/>
</g>
<!-- ﻿Кастелоризо&#45;&#45;Вис -->
<g id="edge9" class="edge"><title>﻿Кастелоризо&#45;&#45;Вис</title>
<path fill="none" stroke="black" d="M436.89,-35.8667C466.564,-73.9197 535.725,-162.607 564.072,-198.959"/>
</g>
</g>
</svg>
